<svg width="492" height="137" viewBox="0 0 492 137" fill="none" xmlns="http://www.w3.org/2000/svg">
<path d="M139.805 29.2178C139.701 26.2285 139.578 23.1778 139.443 20.0685C140.065 20.1512 140.661 20.2245 141.226 20.2872C141.795 20.3485 142.366 20.3792 142.938 20.3792C143.509 20.3792 144.074 20.3485 144.651 20.2872C145.217 20.2245 145.813 20.1512 146.426 20.0685C146.274 23.1778 146.125 26.2285 145.994 29.2178C145.869 32.2098 145.797 35.2658 145.797 38.3685V50.5232C145.797 53.6352 145.869 56.7045 145.994 59.7178C146.125 62.7325 146.274 65.7005 146.426 68.6245C145.335 68.5498 144.174 68.5178 142.938 68.5178C141.699 68.5178 140.542 68.5498 139.443 68.6245C139.578 65.7005 139.701 62.7325 139.805 59.7178C139.913 56.7045 139.973 53.6352 139.973 50.5232V38.3685C139.973 35.2658 139.913 32.2098 139.805 29.2178Z" fill="black"/>
<path d="M139.6 20.2382C139.719 23.1142 139.841 26.1862 139.949 29.2129C140.065 32.2436 140.117 35.3236 140.117 38.3689V50.5236C140.117 53.5689 140.065 56.6649 139.949 59.7209C139.86 62.3116 139.749 65.0982 139.6 68.4662C140.609 68.4009 141.703 68.3729 142.939 68.3729C144.179 68.3729 145.269 68.4009 146.273 68.4662C146.103 65.2796 145.965 62.4156 145.849 59.7209C145.719 56.6516 145.652 53.5569 145.652 50.5236V38.3689C145.652 35.3409 145.719 32.2569 145.849 29.2129C145.961 26.6156 146.092 23.8409 146.273 20.2382C145.719 20.3089 145.18 20.3756 144.665 20.4342C143.471 20.5582 142.384 20.5582 141.212 20.4342C140.697 20.3756 140.159 20.3089 139.6 20.2382ZM146.583 68.7822L146.419 68.7716C145.377 68.7009 144.237 68.6636 142.939 68.6636C141.64 68.6636 140.501 68.7009 139.455 68.7716L139.291 68.7822L139.299 68.6209C139.451 65.1756 139.567 62.3449 139.656 59.7102C139.768 56.6582 139.824 53.5689 139.824 50.5236V38.3689C139.824 35.3276 139.768 32.2516 139.656 29.2222C139.548 26.1356 139.417 22.9996 139.299 20.0769L139.291 19.9009L139.467 19.9236C140.08 20.0022 140.676 20.0782 141.241 20.1409C142.392 20.2622 143.452 20.2662 144.636 20.1409C145.199 20.0782 145.797 20.0022 146.404 19.9236L146.583 19.9009L146.572 20.0769C146.389 23.7662 146.259 26.5862 146.144 29.2222C146.009 32.2649 145.947 35.3422 145.947 38.3689V50.5236C145.947 53.5529 146.009 56.6449 146.144 59.7102C146.259 62.4489 146.4 65.3662 146.572 68.6196L146.583 68.7822Z" fill="black"/>
<path d="M182.878 50.2817C176.755 43.7003 170.628 37.167 164.502 30.651C164.46 31.9777 164.408 33.7537 164.367 35.9603C164.323 38.1777 164.296 41.1937 164.296 45.015C164.296 46.0043 164.307 47.231 164.327 48.6937C164.356 50.155 164.379 51.691 164.404 53.291C164.431 54.895 164.464 56.5217 164.512 58.171C164.558 59.8217 164.602 61.3537 164.646 62.7697C164.699 64.179 164.743 65.4177 164.791 66.4803C164.84 67.5417 164.88 68.2617 164.936 68.6363C164.174 68.547 163.34 68.4937 162.424 68.4937C161.468 68.4937 160.586 68.547 159.786 68.6363C159.886 68.1683 159.986 67.2937 160.11 66.0243C160.224 64.751 160.326 63.231 160.426 61.4577C160.519 59.691 160.627 57.771 160.738 55.695C160.854 53.623 160.958 51.5497 161.024 49.4723C161.095 47.3977 161.159 45.367 161.211 43.3923C161.252 41.4057 161.278 39.6363 161.278 38.083C161.278 33.5577 161.263 29.667 161.24 26.411C161.215 23.1643 161.159 20.7283 161.07 19.127H162.198C165.067 22.243 168.138 25.5723 171.42 29.1363C174.688 32.6923 177.946 36.2137 181.17 39.6737C184.392 43.1443 187.459 46.4203 190.351 49.5097C193.247 52.6003 195.779 55.2283 197.952 57.3923V47.771C197.952 42.8243 197.919 37.999 197.848 33.307C197.788 28.615 197.647 24.203 197.431 20.047C198.38 20.287 199.184 20.4003 199.843 20.4003C200.412 20.4003 201.176 20.287 202.118 20.047C202.024 21.0857 201.912 22.6443 201.798 24.719C201.675 26.7923 201.555 29.0097 201.44 31.367C201.314 33.7163 201.21 36.035 201.12 38.2977C201.019 40.559 200.971 42.3763 200.971 43.7443V47.983C200.971 49.587 200.982 51.2657 201.008 53.003C201.034 54.7537 201.056 56.511 201.086 58.275C201.102 60.0417 201.12 61.6977 201.142 63.231C201.168 64.7643 201.179 66.095 201.179 67.223V69.563H200.19C194.77 63.2883 189.004 56.8603 182.878 50.2817Z" fill="black"/>
<path d="M200.252 69.4136H201.034V67.2229C201.034 66.0456 201.019 64.7016 201 63.2349C200.971 61.7016 200.956 60.0469 200.938 58.2763L200.934 58.0496C200.907 56.3616 200.882 54.6829 200.863 53.0056C200.84 51.3403 200.826 49.6509 200.826 47.9829V43.7442C200.826 42.3762 200.874 40.5429 200.971 38.2923C201.067 35.9229 201.175 33.5909 201.291 31.3576C201.399 29.1749 201.518 26.9976 201.648 24.7083C201.771 22.5069 201.879 21.0856 201.954 20.2376C201.104 20.4442 200.398 20.5496 199.843 20.5496C199.207 20.5496 198.447 20.4429 197.591 20.2376C197.807 24.4403 197.94 28.8363 197.996 33.3042C198.064 37.8442 198.098 42.7149 198.098 47.7709V57.7483L197.848 57.4976C195.715 55.3696 193.158 52.7163 190.247 49.6096L189.35 48.6563C186.722 45.8469 183.956 42.8896 181.058 39.7722C177.603 36.0616 174.414 32.6149 171.312 29.2363C169.463 27.2283 167.679 25.2923 165.96 23.4283L162.134 19.2723H161.222C161.307 20.8722 161.363 23.2723 161.386 26.4096C161.411 29.9189 161.427 33.8483 161.427 38.0829C161.427 39.4816 161.4 41.1683 161.359 43.3936C161.307 45.2963 161.248 47.2856 161.17 49.4789C161.114 51.3363 161.016 53.3789 160.883 55.7029C160.771 57.7776 160.667 59.6963 160.574 61.4629C160.466 63.3389 160.366 64.8349 160.254 66.0389C160.143 67.2229 160.05 67.9896 159.967 68.4683C161.479 68.3083 163.235 68.2989 164.768 68.4683C164.728 68.0936 164.691 67.4909 164.643 66.4896C164.606 65.6016 164.568 64.5989 164.527 63.4709L164.502 62.7749C164.456 61.3589 164.408 59.8256 164.363 58.1723C164.319 56.5923 164.282 54.9936 164.255 53.2909L164.232 51.8176C164.218 50.7429 164.199 49.7003 164.184 48.6976C164.159 47.1256 164.151 45.9549 164.151 45.0149C164.151 41.3563 164.174 38.3096 164.222 35.9562C164.255 34.0402 164.304 32.2509 164.356 30.6469L164.367 30.2936L164.608 30.5522C171.223 37.5816 177.235 44.0043 182.986 50.1829C189.015 56.6616 194.826 63.1309 200.252 69.4136ZM201.328 69.7083H200.122L200.074 69.6576C194.639 63.3616 188.818 56.8776 182.774 50.3816C177.09 44.2803 171.152 37.9389 164.635 31.0122C164.59 32.5229 164.546 34.1856 164.512 35.9603C164.467 38.3136 164.442 41.3616 164.442 45.0149C164.442 45.9549 164.456 47.1229 164.475 48.6923C164.494 49.6989 164.512 50.7389 164.527 51.8096L164.55 53.2829C164.575 54.9896 164.612 56.5856 164.658 58.1656C164.702 59.8176 164.747 61.3509 164.795 62.7643L164.822 63.4616C164.859 64.5856 164.895 65.5896 164.936 66.4736C164.992 67.6589 165.034 68.2789 165.082 68.6189L165.107 68.8056L164.918 68.7829C163.299 68.5896 161.4 68.6003 159.803 68.7829L159.599 68.8056L159.643 68.6056C159.732 68.1723 159.834 67.3496 159.96 66.0109C160.072 64.8096 160.176 63.3189 160.28 61.4456C160.374 59.6803 160.478 57.7616 160.592 55.6896C160.727 53.3616 160.82 51.3283 160.879 49.4683C160.95 47.2736 161.014 45.2869 161.066 43.3869C161.107 41.1656 161.128 39.4776 161.128 38.0829C161.128 33.8483 161.118 29.9216 161.091 26.4109C161.07 23.1736 161.014 20.7256 160.92 19.1362L160.912 18.9816H162.26L162.304 19.0282L166.176 23.2309C167.899 25.0936 169.679 27.0296 171.528 29.0376C174.628 32.4149 177.823 35.8603 181.274 39.5736C184.168 42.6923 186.938 45.6469 189.566 48.4563L190.455 49.4083C193.255 52.3923 195.726 54.9589 197.807 57.0416V47.7709C197.807 42.7162 197.77 37.8482 197.707 33.3069C197.647 28.7749 197.506 24.3162 197.286 20.0536L197.279 19.8549L197.472 19.9056C198.387 20.1376 199.184 20.2589 199.843 20.2589C200.416 20.2589 201.168 20.1376 202.08 19.9056L202.28 19.8509L202.262 20.0589C202.191 20.8709 202.076 22.3416 201.943 24.7269C201.808 27.0149 201.692 29.1883 201.586 31.3709C201.47 33.6043 201.362 35.9389 201.264 38.3056C201.168 40.5496 201.119 42.3789 201.119 43.7442V47.9829C201.119 49.6483 201.135 51.3363 201.154 53.0003C201.179 54.6736 201.202 56.3576 201.228 58.0456L201.231 58.2749C201.25 60.0416 201.264 61.6963 201.291 63.2296C201.314 64.6976 201.328 66.0429 201.328 67.2229V69.7083Z" fill="black"/>
<path d="M250.684 66.9737C249.762 67.4257 248.652 67.8217 247.354 68.1737C246.051 68.5337 244.606 68.851 243.006 69.135C241.398 69.4123 239.723 69.563 237.984 69.563C234.259 69.563 230.808 69.0297 227.655 67.9657C224.495 66.907 221.767 65.2843 219.47 63.123C217.182 60.9537 215.376 58.3003 214.07 55.1617C212.771 52.0297 212.111 48.4563 212.111 44.4457C212.111 40.4417 212.771 36.8683 214.07 33.7323C215.376 30.5963 217.2 27.9483 219.538 25.7763C221.882 23.6083 224.678 21.9577 227.938 20.8257C231.188 19.6963 234.776 19.127 238.688 19.127C241.807 19.127 244.643 19.443 247.215 20.0763C249.784 20.7163 252.054 21.4737 254.038 22.3657C253.662 23.031 253.354 23.9243 253.123 25.0563C252.888 26.1897 252.695 27.1297 252.56 27.887L252.136 28.0283C251.659 27.463 250.998 26.8283 250.152 26.1217C249.307 25.4137 248.318 24.7283 247.182 24.063C246.047 23.4057 244.774 22.8523 243.359 22.407C241.944 21.9577 240.382 21.7323 238.688 21.7323C235.907 21.7323 233.324 22.1817 230.942 23.0857C228.56 23.971 226.483 25.351 224.715 27.2177C222.951 29.0763 221.57 31.4417 220.576 34.2897C219.586 37.1497 219.095 40.5337 219.095 44.4457C219.095 48.3643 219.586 51.7483 220.576 54.599C221.57 57.4577 222.951 59.8163 224.715 61.679C226.483 63.5403 228.56 64.923 230.942 65.8163C233.324 66.707 235.907 67.163 238.688 67.163C240.382 67.163 241.956 66.9497 243.396 66.5257C244.836 66.099 246.151 65.5963 247.354 64.9977C248.559 64.407 249.642 63.7723 250.61 63.0897C251.574 62.4043 252.39 61.8017 253.055 61.279L253.335 61.5617L252.695 65.7377C252.27 66.1177 251.6 66.531 250.684 66.9737Z" fill="black"/>
<path d="M238.688 19.2723C234.809 19.2723 231.21 19.8416 227.982 20.9656C224.766 22.0869 221.96 23.7389 219.641 25.8843C217.33 28.0283 215.498 30.6843 214.204 33.7869C212.916 36.9003 212.26 40.4829 212.26 44.4456C212.26 48.4136 212.916 51.9989 214.204 55.1083C215.494 58.2043 217.304 60.8669 219.57 63.0149C221.852 65.1629 224.588 66.7803 227.7 67.8243C230.826 68.8789 234.285 69.4136 237.984 69.4136C239.662 69.4136 241.345 69.2709 242.98 68.9936C244.58 68.7083 246.038 68.3869 247.316 68.0323C248.6 67.6829 249.713 67.2803 250.621 66.8403C251.485 66.4229 252.136 66.0283 252.557 65.6616L253.178 61.6136L253.044 61.4749C252.404 61.9736 251.633 62.5429 250.696 63.2083C249.728 63.8936 248.622 64.5389 247.416 65.1296C246.206 65.7309 244.908 66.2309 243.437 66.6643C241.985 67.0923 240.385 67.3109 238.688 67.3109C235.922 67.3109 233.294 66.8563 230.89 65.9536C228.504 65.0603 226.39 63.6549 224.61 61.7829C222.834 59.9123 221.436 57.5123 220.438 54.6496C219.452 51.8003 218.949 48.3669 218.949 44.4456C218.949 40.5336 219.452 37.1003 220.438 34.2389C221.44 31.3709 222.842 28.9763 224.61 27.1136C226.386 25.2389 228.5 23.8376 230.89 22.9443C233.272 22.0416 235.9 21.5869 238.688 21.5869C240.381 21.5869 241.97 21.8149 243.4 22.2669C244.814 22.7109 246.113 23.2736 247.256 23.9363C248.398 24.6096 249.404 25.3056 250.249 26.0069C251.082 26.7056 251.716 27.3136 252.184 27.8576L252.433 27.7776C252.56 27.0589 252.732 26.2163 252.977 25.0269C253.193 23.9749 253.484 23.1069 253.833 22.4323C251.924 21.5909 249.686 20.8443 247.178 20.2163C244.632 19.5909 241.777 19.2723 238.688 19.2723ZM237.984 69.7083C234.254 69.7083 230.764 69.1683 227.606 68.1056C224.45 67.0469 221.677 65.4069 219.373 63.2309C217.073 61.0523 215.242 58.3549 213.936 55.2176C212.629 52.0763 211.966 48.4536 211.966 44.4456C211.966 40.4456 212.629 36.8203 213.936 33.6736C215.245 30.5363 217.096 27.8403 219.441 25.6669C221.789 23.4976 224.633 21.8216 227.886 20.6883C231.142 19.5549 234.78 18.9816 238.688 18.9816C241.804 18.9816 244.677 19.3016 247.249 19.9309C249.836 20.5803 252.144 21.3509 254.097 22.2336L254.246 22.3003L254.168 22.4363C253.796 23.0989 253.49 23.9883 253.264 25.0843C253.01 26.3216 252.836 27.1856 252.705 27.9136L252.686 28.0003L252.088 28.2016L252.024 28.1243C251.558 27.5709 250.918 26.9509 250.056 26.2323C249.229 25.5429 248.236 24.8523 247.108 24.1896C245.984 23.5403 244.706 22.9856 243.314 22.5443C241.912 22.1056 240.356 21.8803 238.688 21.8803C235.933 21.8803 233.342 22.3323 230.99 23.2176C228.645 24.0976 226.568 25.4749 224.822 27.3176C223.085 29.1469 221.704 31.5083 220.717 34.3403C219.734 37.1669 219.24 40.5669 219.24 44.4456C219.24 48.3336 219.734 51.7336 220.717 54.5496C221.696 57.3763 223.081 59.7416 224.822 61.5803C226.572 63.4216 228.649 64.8003 230.99 65.6789C233.365 66.5656 235.956 67.0189 238.688 67.0189C240.356 67.0189 241.93 66.8056 243.36 66.3843C244.806 65.9563 246.092 65.4589 247.286 64.8669C248.481 64.2829 249.568 63.6456 250.524 62.9709C251.51 62.2709 252.31 61.6789 252.962 61.1616L253.066 61.0856L253.494 61.5096L252.832 65.8123L252.794 65.8496C252.356 66.2403 251.666 66.6643 250.748 67.1056C249.825 67.5549 248.697 67.9616 247.39 68.3163C246.109 68.6709 244.64 68.9963 243.032 69.2829C241.378 69.5643 239.681 69.7083 237.984 69.7083Z" fill="black"/>
<path d="M268.539 46.6341C269.761 46.6341 271.033 46.6528 272.358 46.6861C273.683 46.7194 274.949 46.7381 276.174 46.7381C277.491 46.7381 278.817 46.7328 280.142 46.7141C281.459 46.6968 282.781 46.6688 284.105 46.6341L276.251 28.6674L268.539 46.6341ZM299.877 68.6248C299.218 68.5501 298.599 68.5181 298.007 68.5181H296.131H294.259C293.667 68.5181 293.038 68.5501 292.379 68.6248C292.053 67.5341 291.594 66.2234 291.033 64.6901C290.47 63.1554 289.845 61.5541 289.163 59.8781C288.471 58.2048 287.775 56.5114 287.073 54.7834C286.369 53.0621 285.706 51.4248 285.089 49.8648C283.581 49.8314 282.054 49.8048 280.491 49.7834C278.943 49.7741 277.375 49.7608 275.827 49.7608C274.361 49.7608 272.921 49.7741 271.51 49.7834C270.091 49.8048 268.658 49.8314 267.195 49.8648C265.681 53.5501 264.322 57.0501 263.086 60.3728C261.862 63.6968 260.946 66.4514 260.331 68.6248C259.529 68.5501 258.657 68.5181 257.715 68.5181C256.774 68.5181 255.899 68.5501 255.098 68.6248C258.914 60.3728 262.635 52.1674 266.277 44.0114C269.902 35.8608 273.561 27.5634 277.234 19.1274H278.582C279.717 21.8594 280.938 24.8208 282.266 28.0008C283.581 31.1834 284.931 34.4008 286.298 37.6528C287.663 40.9034 289.03 44.1368 290.395 47.3394C291.769 50.5408 293.057 53.5221 294.259 56.2821C295.458 59.0394 296.541 61.5034 297.505 63.6661C298.473 65.8408 299.262 67.4914 299.877 68.6248Z" fill="black"/>
<path d="M268.759 46.4868C269.939 46.4868 271.152 46.5068 272.362 46.5402C273.735 46.5749 274.986 46.5908 276.174 46.5908C277.655 46.5908 278.951 46.5815 280.138 46.5682C281.455 46.5522 282.68 46.5255 283.886 46.4922L276.251 29.0375L268.759 46.4868ZM276.174 46.8828C274.983 46.8828 273.732 46.8682 272.355 46.8362C271.071 46.7975 269.783 46.7788 268.539 46.7788H268.312L268.402 46.5775L276.251 28.2948L276.386 28.6055L284.328 46.7735L284.112 46.7788C282.836 46.8148 281.538 46.8442 280.146 46.8615C278.951 46.8775 277.659 46.8828 276.174 46.8828ZM257.715 68.3735C258.656 68.3735 259.483 68.4015 260.22 68.4668C260.835 66.3108 261.75 63.5735 262.948 60.3202C264.259 56.7948 265.64 53.2575 267.062 49.8095L267.091 49.7215L267.192 49.7175C268.655 49.6842 270.091 49.6588 271.506 49.6375C274.412 49.6135 277.476 49.6175 280.491 49.6375C282.058 49.6588 283.584 49.6842 285.092 49.7175L285.188 49.7215L285.226 49.8122C285.862 51.4148 286.555 53.1228 287.206 54.7295C287.914 56.4548 288.61 58.1468 289.302 59.8215C290.079 61.7495 290.671 63.2788 291.17 64.6402C291.762 66.2535 292.187 67.4722 292.488 68.4668C293.072 68.4055 293.668 68.3735 294.259 68.3735H298.008C298.544 68.3735 299.076 68.3975 299.616 68.4495C299.024 67.3255 298.268 65.7375 297.371 63.7282C296.384 61.5135 295.294 59.0268 294.126 56.3375C292.804 53.3082 291.539 50.3828 290.262 47.3975C288.896 44.1922 287.53 40.9575 286.16 37.7095C284.947 34.8255 283.522 31.4215 282.128 28.0548C281.228 25.8962 280.372 23.8335 279.564 21.8802L278.484 19.2722H277.331C273.739 27.5188 270.066 35.8602 266.41 44.0708C262.748 52.2828 259.022 60.4842 255.336 68.4588C256.04 68.3988 256.822 68.3735 257.715 68.3735ZM300.14 68.8015L299.862 68.7722C299.236 68.6988 298.63 68.6628 298.008 68.6628H294.259C293.638 68.6628 293.012 68.7002 292.399 68.7722L292.272 68.7842L292.239 68.6655C291.936 67.6588 291.508 66.4122 290.895 64.7402C290.396 63.3815 289.804 61.8535 289.03 59.9295C288.338 58.2602 287.642 56.5668 286.938 54.8415C286.294 53.2655 285.614 51.5895 284.987 50.0082C283.514 49.9762 282.018 49.9508 280.487 49.9335C277.48 49.9068 274.406 49.9068 271.51 49.9335C270.126 49.9508 268.726 49.9762 267.296 50.0082C265.89 53.4228 264.519 56.9295 263.224 60.4242C262.011 63.7282 261.084 66.4975 260.474 68.6628L260.44 68.7828L260.318 68.7722C259.554 68.6988 258.702 68.6628 257.715 68.6628C256.722 68.6628 255.87 68.6988 255.11 68.7722L254.856 68.7962L254.964 68.5655C258.683 60.5188 262.446 52.2375 266.143 43.9508C269.808 35.7135 273.498 27.3415 277.1 19.0695L277.138 18.9815H278.682L279.836 21.7682C280.647 23.7255 281.5 25.7802 282.4 27.9455C283.792 31.3082 285.222 34.7135 286.432 37.5948C287.802 40.8442 289.164 44.0802 290.53 47.2815C291.807 50.2668 293.072 53.1908 294.394 56.2202C295.559 58.9055 296.652 61.3922 297.643 63.6055C298.599 65.7642 299.396 67.4255 300.007 68.5562L300.14 68.8015Z" fill="black"/>
<path d="M338.617 23.7128C337.374 23.7128 336.093 23.7261 334.753 23.7501C333.409 23.7754 332.062 23.8248 330.722 23.8914C329.371 23.9714 328.079 24.0514 326.829 24.1501C325.582 24.2488 324.458 24.3741 323.471 24.5248C323.702 23.6741 323.817 22.9221 323.817 22.2568C323.817 21.7381 323.702 21.0048 323.471 20.0688C326.575 20.1501 329.621 20.2248 332.59 20.2861C335.569 20.3474 338.631 20.3794 341.791 20.3794C344.941 20.3794 348.007 20.3474 350.978 20.2861C353.955 20.2248 356.989 20.1501 360.105 20.0688C359.87 21.0048 359.747 21.7621 359.747 22.3248C359.747 22.9448 359.87 23.6741 360.105 24.5248C359.114 24.3741 357.994 24.2488 356.743 24.1501C355.493 24.0514 354.201 23.9714 352.846 23.8914C351.503 23.8248 350.166 23.7754 348.819 23.7501C347.479 23.7261 346.187 23.7128 344.966 23.7128C344.818 28.5661 344.751 33.4488 344.751 38.3461V50.5194C344.751 53.6274 344.806 56.6928 344.914 59.7101C345.034 62.7261 345.153 65.7008 345.271 68.6248C344.185 68.5501 343.027 68.5181 341.791 68.5181C340.553 68.5181 339.387 68.5501 338.297 68.6248C338.457 65.7008 338.602 62.7261 338.729 59.7101C338.858 56.6928 338.918 53.6274 338.918 50.5194V38.3461C338.918 33.4488 338.814 28.5661 338.617 23.7128Z" fill="black"/>
<path d="M341.792 68.3734C343.024 68.3734 344.118 68.4014 345.12 68.4667C345 65.5947 344.885 62.6787 344.769 59.7174C344.658 56.66 344.602 53.5654 344.602 50.52V38.3467C344.602 33.3427 344.676 28.416 344.821 23.7094L344.825 23.568H344.966C346.236 23.568 347.534 23.5814 348.822 23.6054C350.11 23.6294 351.428 23.676 352.854 23.744C354.324 23.832 355.553 23.9081 356.754 24.0014C357.92 24.0987 358.981 24.212 359.904 24.3454C359.7 23.5547 359.602 22.892 359.602 22.3241C359.602 21.7947 359.702 21.1081 359.912 20.2214C356.87 20.3 353.9 20.372 350.978 20.4334C344.978 20.5587 338.609 20.5587 332.59 20.4334C329.676 20.372 326.698 20.3 323.657 20.2214C323.865 21.0801 323.966 21.7627 323.966 22.2574C323.966 22.876 323.869 23.564 323.669 24.3454C324.592 24.212 325.649 24.0987 326.817 24.0014C328.132 23.9014 329.516 23.8147 330.71 23.744C332.11 23.676 333.469 23.6294 334.749 23.6054C336.056 23.5814 337.321 23.568 338.617 23.568H338.754L338.762 23.7067C338.962 28.5867 339.064 33.512 339.064 38.3467V50.52C339.064 53.6854 339 56.7787 338.877 59.7174C338.762 62.4294 338.62 65.2974 338.457 68.4667C339.458 68.4014 340.549 68.3734 341.792 68.3734ZM338.144 68.7827L338.152 68.6187C338.326 65.3814 338.464 62.4667 338.584 59.704C338.71 56.7694 338.773 53.6814 338.773 50.52V38.3467C338.773 33.5614 338.673 28.688 338.476 23.8587C337.232 23.86 336.014 23.8747 334.753 23.8947C333.473 23.9227 332.121 23.9694 330.725 24.036C329.534 24.1081 328.153 24.1934 326.84 24.2961C325.585 24.4001 324.457 24.524 323.493 24.6694L323.266 24.7027L323.33 24.484C323.557 23.6347 323.672 22.9067 323.672 22.2574C323.672 21.7507 323.557 21.0267 323.326 20.104L323.281 19.9187L323.472 19.924C326.58 20.0014 329.62 20.0787 332.594 20.1414C338.609 20.2627 344.978 20.2627 350.974 20.1414C353.952 20.0787 356.985 20.0014 360.101 19.924L360.29 19.9187L360.246 20.104C360.012 21.0427 359.893 21.792 359.893 22.3241C359.893 22.9147 360.008 23.6214 360.242 24.484L360.305 24.7027L360.078 24.6694C359.11 24.5187 357.984 24.3934 356.733 24.2961C355.53 24.204 354.305 24.1241 352.838 24.036C351.417 23.9694 350.1 23.9227 348.816 23.8947C347.58 23.8747 346.333 23.86 345.112 23.8587C344.966 28.5187 344.896 33.396 344.896 38.3467V50.52C344.896 53.5627 344.956 56.6547 345.064 59.704C345.178 62.7214 345.298 65.692 345.421 68.6214L345.428 68.7827L345.264 68.772C344.226 68.7014 343.088 68.664 341.792 68.664C340.489 68.664 339.35 68.7014 338.308 68.772L338.144 68.7827Z" fill="black"/>
<path d="M407.056 34.2894C406.074 31.4414 404.696 29.0761 402.936 27.2174C401.175 25.3507 399.106 23.9721 396.735 23.0854C394.352 22.1814 391.784 21.7334 389.015 21.7334C386.287 21.7334 383.736 22.1814 381.37 23.0854C378.991 23.9721 376.93 25.3507 375.168 27.2174C373.408 29.0761 372.035 31.4414 371.048 34.2894C370.058 37.1494 369.559 40.5334 369.559 44.4454C369.559 48.3654 370.058 51.7481 371.048 54.6001C372.035 57.4587 373.408 59.8161 375.168 61.6787C376.93 63.5401 378.991 64.9227 381.37 65.8161C383.736 66.7081 386.287 67.1641 389.015 67.1641C391.784 67.1641 394.352 66.7081 396.735 65.8161C399.106 64.9227 401.175 63.5401 402.936 61.6787C404.696 59.8161 406.074 57.4587 407.056 54.6001C408.043 51.7481 408.53 48.3654 408.53 44.4454C408.53 40.5334 408.043 37.1494 407.056 34.2894ZM364.523 33.7334C365.822 30.5974 367.639 27.9494 369.964 25.7774C372.303 23.6081 375.098 21.9574 378.34 20.8267C381.592 19.6961 385.155 19.1267 389.015 19.1267C392.919 19.1267 396.507 19.6961 399.758 20.8267C403.007 21.9574 405.802 23.6081 408.128 25.7774C410.462 27.9494 412.271 30.5974 413.57 33.7334C414.872 36.8694 415.514 40.4427 415.514 44.4454C415.514 48.4561 414.872 52.0294 413.57 55.1614C412.271 58.3014 410.462 60.9534 408.128 63.1227C405.802 65.2841 403.007 66.9067 399.758 67.9654C396.507 69.0307 392.919 69.5627 389.015 69.5627C385.155 69.5627 381.592 69.0307 378.34 67.9654C375.098 66.9067 372.303 65.2841 369.964 63.1227C367.639 60.9534 365.822 58.3014 364.523 55.1614C363.231 52.0294 362.584 48.4561 362.584 44.4454C362.584 40.4427 363.231 36.8694 364.523 33.7334Z" fill="black"/>
<path d="M389.015 21.8795C386.312 21.8795 383.759 22.3315 381.422 23.2182C379.084 24.0902 377.018 25.4715 375.276 27.3182C373.538 29.1502 372.164 31.5129 371.19 34.3395C370.203 37.1715 369.704 40.5742 369.704 44.4449C369.704 48.3235 370.203 51.7275 371.19 54.5489C372.16 57.3689 373.535 59.7342 375.276 61.5795C377.022 63.4249 379.088 64.8035 381.422 65.6782C383.782 66.5662 386.335 67.0182 389.015 67.0182C391.728 67.0182 394.308 66.5662 396.683 65.6782C399.016 64.7995 401.086 63.4209 402.828 61.5795C404.578 59.7289 405.951 57.3649 406.915 54.5489C407.89 51.7382 408.386 48.3435 408.386 44.4449C408.386 40.5595 407.89 37.1569 406.915 34.3395C405.947 31.5195 404.57 29.1622 402.828 27.3182C401.09 25.4755 399.02 24.0982 396.683 23.2182C394.33 22.3315 391.747 21.8795 389.015 21.8795ZM389.015 67.3102C386.298 67.3102 383.711 66.8569 381.318 65.9542C378.943 65.0635 376.84 63.6595 375.06 61.7809C373.292 59.9075 371.896 57.5062 370.911 54.6475C369.916 51.7889 369.414 48.3569 369.414 44.4449C369.414 40.5422 369.916 37.1075 370.911 34.2395C371.9 31.3782 373.296 28.9795 375.06 27.1182C376.836 25.2382 378.943 23.8342 381.318 22.9435C383.688 22.0409 386.275 21.5875 389.015 21.5875C391.784 21.5875 394.404 22.0409 396.787 22.9435C399.17 23.8369 401.268 25.2422 403.044 27.1182C404.815 28.9889 406.211 31.3862 407.194 34.2422C408.176 37.0915 408.675 40.5262 408.675 44.4449C408.675 48.3742 408.176 51.8062 407.194 54.6489C406.215 57.4969 404.815 59.8955 403.044 61.7809C401.268 63.6555 399.162 65.0569 396.787 65.9542C394.379 66.8569 391.762 67.3102 389.015 67.3102ZM389.015 19.2715C385.192 19.2715 381.619 19.8422 378.388 20.9662C375.172 22.0915 372.374 23.7422 370.066 25.8849C367.758 28.0422 365.938 30.6995 364.66 33.7862C363.38 36.8915 362.732 40.4755 362.732 44.4449C362.732 48.4222 363.38 52.0062 364.66 55.1075C365.938 58.2009 367.758 60.8582 370.066 63.0155C372.384 65.1622 375.183 66.7795 378.384 67.8235C381.608 68.8795 385.184 69.4129 389.015 69.4129C392.894 69.4129 396.496 68.8795 399.708 67.8235C402.92 66.7795 405.72 65.1622 408.028 63.0155C410.332 60.8715 412.148 58.2115 413.436 55.1075C414.716 52.0182 415.368 48.4315 415.368 44.4449C415.368 40.4662 414.716 36.8795 413.436 33.7862C412.152 30.6862 410.332 28.0289 408.028 25.8849C405.731 23.7422 402.928 22.0915 399.704 20.9662C396.486 19.8422 392.886 19.2715 389.015 19.2715ZM389.015 69.7075C385.155 69.7075 381.548 69.1675 378.291 68.1049C375.05 67.0462 372.216 65.4062 369.864 63.2302C367.527 61.0462 365.684 58.3489 364.39 55.2169C363.098 52.0849 362.439 48.4609 362.439 44.4449C362.439 40.4409 363.098 36.8169 364.39 33.6729C365.68 30.5502 367.527 27.8542 369.864 25.6662C372.206 23.5009 375.038 21.8262 378.288 20.6889C381.552 19.5555 385.159 18.9822 389.015 18.9822C392.919 18.9822 396.552 19.5555 399.806 20.6889C403.066 21.8262 405.899 23.5009 408.228 25.6662C410.563 27.8409 412.408 30.5369 413.704 33.6729C415.007 36.7995 415.662 40.4275 415.662 44.4449C415.662 48.4729 415.007 52.0982 413.704 55.2169C412.406 58.3622 410.563 61.0569 408.228 63.2302C405.887 65.4062 403.051 67.0462 399.802 68.1049C396.556 69.1675 392.927 69.7075 389.015 69.7075Z" fill="black"/>
<path d="M436.942 44.2427C438.415 44.2427 439.931 44.0747 441.494 43.748C443.054 43.4147 444.487 42.812 445.792 41.9427C447.096 41.068 448.164 39.8694 448.994 38.3294C449.816 36.8027 450.238 34.8307 450.238 32.4307C450.238 30.3974 449.951 28.7534 449.382 27.484C448.819 26.2107 448.019 25.2187 446.995 24.508C445.979 23.804 444.739 23.32 443.266 23.06C441.803 22.8027 440.139 22.6694 438.296 22.6694H431.898V43.6734C433.506 44.0507 435.192 44.2427 436.942 44.2427ZM425.902 29.2187C425.794 26.2294 425.671 23.1787 425.544 20.0694C426.676 20.1507 427.819 20.2254 428.98 20.2867C430.134 20.348 431.276 20.38 432.412 20.38C432.974 20.38 433.663 20.3574 434.467 20.316C435.267 20.276 436.078 20.2427 436.908 20.2254C437.731 20.2067 438.52 20.168 439.272 20.1254C440.031 20.0854 440.671 20.0694 441.188 20.0694C441.903 20.0694 442.771 20.0854 443.81 20.1374C444.851 20.184 445.95 20.328 447.103 20.5627C448.26 20.7987 449.407 21.148 450.531 21.6214C451.667 22.092 452.702 22.7734 453.616 23.6734C454.532 24.5614 455.278 25.6854 455.847 27.024C456.412 28.3694 456.699 30.0294 456.699 32.004C456.699 35.116 456.026 37.636 454.678 39.568C453.331 41.4974 451.678 43.0067 449.72 44.092C447.758 45.1774 445.678 45.9014 443.482 46.2787C441.29 46.6587 439.335 46.844 437.638 46.844C436.555 46.844 435.554 46.8294 434.664 46.8067C433.767 46.788 432.84 46.7254 431.898 46.6347V50.524C431.898 53.636 431.968 56.704 432.092 59.7107C432.226 62.732 432.367 65.7014 432.527 68.624C431.43 68.5507 430.264 68.5187 429.028 68.5187C427.796 68.5187 426.635 68.5507 425.544 68.624C425.671 65.7014 425.794 62.732 425.902 59.7174C426.01 56.704 426.07 53.636 426.07 50.524V38.3694C426.07 35.2667 426.01 32.2107 425.902 29.2187Z" fill="black"/>
<path d="M432.047 43.5556C433.613 43.9129 435.263 44.0942 436.941 44.0942C438.385 44.0942 439.904 43.9302 441.464 43.6036C442.993 43.2769 444.423 42.6796 445.715 41.8209C446.988 40.9609 448.052 39.7649 448.867 38.2596C449.679 36.7556 450.092 34.7916 450.092 32.4302C450.092 30.4422 449.805 28.7969 449.247 27.5449C448.696 26.3036 447.915 25.3222 446.917 24.6289C445.916 23.9382 444.68 23.4596 443.24 23.2062C441.773 22.9476 440.109 22.8182 438.296 22.8182H432.047V43.5556ZM436.941 44.3876C435.196 44.3876 433.487 44.1956 431.864 43.8156L431.752 43.7889V22.5236H438.296C440.124 22.5236 441.807 22.6556 443.292 22.9169C444.773 23.1769 446.045 23.6716 447.08 24.3862C448.127 25.1102 448.941 26.1329 449.515 27.4236C450.092 28.7156 450.383 30.4009 450.383 32.4302C450.383 34.8396 449.957 36.8502 449.124 38.4009C448.287 39.9476 447.192 41.1822 445.875 42.0636C444.553 42.9449 443.095 43.5556 441.524 43.8902C439.945 44.2222 438.404 44.3876 436.941 44.3876ZM425.697 20.2276C425.823 23.2809 425.943 26.2742 426.047 29.2129C426.159 32.2436 426.215 35.3236 426.215 38.3689V50.5236C426.215 53.5676 426.159 56.6649 426.047 59.7209C425.949 62.4249 425.839 65.2889 425.7 68.4662C426.701 68.4009 427.792 68.3729 429.028 68.3729C430.264 68.3729 431.361 68.4009 432.371 68.4662C432.225 65.8222 432.088 62.9569 431.947 59.7169C431.816 56.6262 431.752 53.5342 431.752 50.5236V46.4716L431.913 46.4862C432.932 46.5876 433.833 46.6449 434.664 46.6596C435.628 46.6836 436.625 46.6969 437.637 46.6969C439.331 46.6969 441.292 46.5076 443.455 46.1329C445.64 45.7569 447.721 45.0276 449.649 43.9636C451.573 42.8969 453.225 41.3876 454.555 39.4822C455.88 37.5902 456.549 35.0742 456.549 32.0036C456.549 30.0596 456.271 28.4022 455.712 27.0809C455.153 25.7622 454.413 24.6529 453.516 23.7782C452.623 22.8996 451.603 22.2196 450.475 21.7582C449.381 21.2969 448.239 20.9436 447.077 20.7076C445.883 20.4676 444.813 20.3262 443.805 20.2822C442.881 20.2422 442.004 20.2156 441.188 20.2156C440.637 20.2156 439.997 20.2382 439.283 20.2756C438.535 20.3129 437.731 20.3529 436.912 20.3702C436.112 20.3876 435.315 20.4169 434.473 20.4609C433.688 20.5062 432.996 20.5249 432.412 20.5249C431.295 20.5249 430.141 20.4942 428.968 20.4329C427.967 20.3796 426.895 20.3129 425.697 20.2276ZM432.68 68.7822L432.516 68.7716C431.469 68.7009 430.331 68.6636 429.028 68.6636C427.733 68.6636 426.597 68.7009 425.556 68.7716L425.392 68.7822L425.399 68.6209C425.54 65.3756 425.656 62.4609 425.756 59.7102C425.864 56.6582 425.92 53.5676 425.92 50.5236V38.3689C425.92 35.3276 425.864 32.2516 425.756 29.2209C425.645 26.2329 425.525 23.1849 425.399 20.0756L425.395 19.9102L425.556 19.9236C426.821 20.0116 427.941 20.0836 428.987 20.1409C430.148 20.2009 431.299 20.2302 432.412 20.2302C432.988 20.2302 433.677 20.2102 434.455 20.1716C435.3 20.1249 436.104 20.0942 436.908 20.0782C437.723 20.0596 438.52 20.0209 439.264 19.9796C439.987 19.9422 440.631 19.9236 441.188 19.9236C442.007 19.9236 442.897 19.9462 443.82 19.9929C444.844 20.0329 445.927 20.1729 447.133 20.4209C448.316 20.6569 449.481 21.0196 450.591 21.4876C451.748 21.9676 452.801 22.6649 453.721 23.5676C454.648 24.4702 455.407 25.6129 455.98 26.9676C456.553 28.3222 456.844 30.0196 456.844 32.0036C456.844 35.1329 456.155 37.7062 454.796 39.6529C453.439 41.5942 451.756 43.1316 449.793 44.2222C447.836 45.2982 445.721 46.0422 443.507 46.4222C441.323 46.7982 439.353 46.9889 437.637 46.9889C436.625 46.9889 435.62 46.9782 434.66 46.9516C433.867 46.9369 433.007 46.8889 432.047 46.7956V50.5236C432.047 53.5316 432.109 56.6182 432.24 59.7049C432.385 63.0156 432.527 65.9236 432.672 68.6182L432.68 68.7822Z" fill="black"/>
<path d="M466.071 62.0753C466.711 62.9487 467.493 63.7353 468.409 64.4447C469.331 65.154 470.403 65.73 471.643 66.174C472.861 66.622 474.234 66.8513 475.749 66.8513C477.317 66.8513 478.711 66.5807 479.974 66.03C481.217 65.4927 482.285 64.7647 483.163 63.838C484.034 62.914 484.709 61.834 485.181 60.586C485.654 59.3353 485.889 57.998 485.889 56.5833C485.889 54.41 485.334 52.6887 484.225 51.4113C483.111 50.134 481.742 49.0807 480.082 48.2287C478.437 47.3807 476.657 46.5953 474.741 45.8873C472.83 45.182 471.051 44.294 469.402 43.2353C467.746 42.1753 466.366 40.814 465.259 39.166C464.147 37.5073 463.595 35.2967 463.595 32.51C463.595 30.5313 463.95 28.7193 464.657 27.0927C465.365 25.4647 466.391 24.0633 467.735 22.8753C469.075 21.7007 470.694 20.778 472.585 20.1207C474.469 19.4567 476.594 19.1273 478.942 19.1273C481.209 19.1273 483.167 19.3967 484.819 19.9407C486.477 20.482 488.006 21.3153 489.421 22.438C488.997 23.238 488.639 24.0887 488.359 24.9807C488.073 25.8833 487.79 27.014 487.511 28.3767H486.666C486.421 27.722 486.101 27.002 485.702 26.2287C485.303 25.442 484.761 24.7287 484.075 24.0633C483.39 23.406 482.586 22.8527 481.641 22.406C480.691 21.958 479.561 21.7327 478.243 21.7327C476.922 21.7327 475.705 21.9473 474.595 22.366C473.49 22.794 472.522 23.394 471.695 24.1713C470.873 24.9527 470.237 25.886 469.79 26.9713C469.339 28.0527 469.119 29.2287 469.119 30.5033C469.119 32.722 469.67 34.4687 470.773 35.7353C471.897 37.0087 473.27 38.09 474.915 38.962C476.575 39.8313 478.358 40.6153 480.263 41.298C482.177 41.9807 483.957 42.8193 485.605 43.8047C487.254 44.7993 488.639 46.066 489.745 47.626C490.857 49.1793 491.411 51.2567 491.411 53.85C491.411 56.0233 491.025 58.0727 490.247 60.0033C489.458 61.9447 488.322 63.6273 486.841 65.0673C485.353 66.506 483.535 67.6087 481.381 68.39C479.233 69.1647 476.783 69.562 474.045 69.562C471.111 69.562 468.741 69.1713 466.927 68.414C465.103 67.6433 463.578 66.7767 462.361 65.782C462.785 64.7007 463.071 63.722 463.238 62.85C463.402 61.978 463.559 60.8607 463.693 59.4887H464.553C464.925 60.3447 465.435 61.1993 466.071 62.0753Z" fill="black"/>
<path d="M462.535 65.7379C463.711 66.6793 465.167 67.5113 466.987 68.2779C468.788 69.0326 471.167 69.4139 474.044 69.4139C476.743 69.4139 479.191 69.0206 481.332 68.2526C483.462 67.4833 485.282 66.3726 486.736 64.9606C488.203 63.5406 489.338 61.8539 490.108 59.9513C490.872 58.0459 491.263 55.9926 491.263 53.8499C491.263 51.2993 490.712 49.2313 489.624 47.7139C488.546 46.1873 487.168 44.9166 485.531 43.9339C483.89 42.9486 482.103 42.1099 480.215 41.4353C478.351 40.7673 476.542 39.9766 474.848 39.0926C473.214 38.2233 471.803 37.1299 470.664 35.8326C469.54 34.5393 468.971 32.7459 468.971 30.5033C468.971 29.2126 469.202 28.0019 469.655 26.9153C470.106 25.8193 470.76 24.8606 471.595 24.0619C472.432 23.2793 473.423 22.6646 474.539 22.2299C475.671 21.8019 476.914 21.5873 478.243 21.5873C479.567 21.5873 480.732 21.8179 481.704 22.2699C482.65 22.7193 483.479 23.2886 484.179 23.9579C484.887 24.6486 485.43 25.3673 485.836 26.1619C486.215 26.8966 486.528 27.5953 486.77 28.2339H487.388C487.66 26.9339 487.939 25.8246 488.218 24.9393C488.482 24.0913 488.824 23.2673 489.238 22.4793C487.868 21.4099 486.368 20.5993 484.775 20.0806C483.148 19.5459 481.183 19.2726 478.943 19.2726C476.604 19.2726 474.483 19.6046 472.634 20.2579C470.78 20.9046 469.16 21.8219 467.828 22.9846C466.503 24.1633 465.475 25.5659 464.791 27.1499C464.091 28.7473 463.74 30.5526 463.74 32.5099C463.74 35.2539 464.292 37.4659 465.383 39.0873C466.476 40.7153 467.854 42.0726 469.48 43.1113C471.138 44.1713 472.923 45.0593 474.788 45.7513C476.675 46.4459 478.48 47.2393 480.148 48.0979C481.831 48.9606 483.2 50.0113 484.335 51.3166C485.467 52.6113 486.036 54.3833 486.036 56.5833C486.036 58.0126 485.795 59.3793 485.319 60.6366C484.838 61.8966 484.154 63.0073 483.267 63.9406C482.392 64.8646 481.302 65.6153 480.03 66.1659C478.771 66.7193 477.331 66.9993 475.748 66.9993C474.23 66.9993 472.834 66.7673 471.591 66.3113C470.359 65.8686 469.254 65.2806 468.319 64.5593C467.382 63.8353 466.58 63.0259 465.952 62.1633C465.308 61.2753 464.82 60.4446 464.455 59.6339H463.827C463.7 60.9139 463.547 62.0046 463.383 62.8779C463.216 63.7539 462.93 64.7179 462.535 65.7379ZM474.044 69.7073C471.126 69.7073 468.714 69.3166 466.871 68.5499C464.984 67.7539 463.476 66.8859 462.267 65.8993L462.186 65.8313L462.222 65.7326C462.632 64.6899 462.926 63.7126 463.094 62.8233C463.264 61.9286 463.418 60.8046 463.547 59.4739L463.563 59.3433H464.65L464.69 59.4313C465.047 60.2499 465.535 61.0873 466.19 61.9873C466.804 62.8313 467.586 63.6219 468.498 64.3273C469.414 65.0273 470.486 65.6019 471.691 66.0353C472.902 66.4806 474.263 66.7073 475.748 66.7073C477.312 66.7073 478.671 66.4393 479.914 65.8979C481.15 65.3633 482.207 64.6339 483.051 63.7379C483.907 62.8326 484.582 61.7553 485.043 60.5326C485.508 59.3059 485.743 57.9793 485.743 56.5833C485.743 54.4579 485.195 52.7499 484.116 51.5059C483.003 50.2326 481.663 49.2059 480.018 48.3606C478.358 47.5046 476.564 46.7193 474.688 46.0246C472.798 45.3273 470.995 44.4286 469.32 43.3606C467.664 42.2953 466.254 40.9153 465.136 39.2513C464.016 37.5793 463.447 35.3113 463.447 32.5099C463.447 30.5099 463.808 28.6686 464.519 27.0353C465.222 25.4099 466.268 23.9753 467.635 22.7659C469 21.5739 470.642 20.6379 472.532 19.9806C474.416 19.3193 476.571 18.9819 478.943 18.9819C481.216 18.9819 483.208 19.2553 484.868 19.8006C486.532 20.3459 488.095 21.1926 489.514 22.3246L489.61 22.3993L489.551 22.5073C489.126 23.3086 488.772 24.1593 488.498 25.0273C488.211 25.9299 487.927 27.0686 487.652 28.4099L487.626 28.5259H486.562L486.528 28.4273C486.286 27.7793 485.966 27.0593 485.571 26.2939C485.184 25.5286 484.659 24.8353 483.975 24.1673C483.302 23.5206 482.494 22.9726 481.578 22.5406C480.647 22.0993 479.523 21.8793 478.243 21.8793C476.951 21.8793 475.742 22.0913 474.647 22.5006C473.56 22.9233 472.607 23.5206 471.799 24.2779C470.992 25.0433 470.359 25.9699 469.927 27.0299C469.488 28.0833 469.264 29.2513 469.264 30.5033C469.264 32.6753 469.808 34.4033 470.887 35.6406C472.004 36.9073 473.382 37.9833 474.986 38.8326C476.664 39.7126 478.459 40.4966 480.312 41.1606C482.218 41.8393 484.027 42.6886 485.679 43.6819C487.355 44.6859 488.758 45.9846 489.867 47.5419C490.987 49.1153 491.556 51.2366 491.556 53.8499C491.556 56.0299 491.159 58.1206 490.38 60.0593C489.595 62.0046 488.438 63.7206 486.944 65.1726C485.452 66.6139 483.599 67.7406 481.428 68.5273C479.263 69.3113 476.776 69.7073 474.044 69.7073Z" fill="black"/>
<path fill-rule="evenodd" clip-rule="evenodd" d="M0 45.544H45.5373V-7.62939e-06H0V45.544Z" fill="#AD3316"/>
<path fill-rule="evenodd" clip-rule="evenodd" d="M91.0706 136.607H136.608V91.0774H91.0706V136.607Z" fill="#AD3316"/>
<path fill-rule="evenodd" clip-rule="evenodd" d="M90.9029 90.9039H45.6309V45.6372H90.9029V90.9039Z" fill="#AD3316"/>
</svg>
